<svg width="20" height="20" viewBox="0 0 20 20" fill="none" xmlns="http://www.w3.org/2000/svg">
<path d="M15.3641 4.12941H13.7491V2.95608C13.7491 2.73774 13.5574 2.52941 13.3324 2.53941C13.2225 2.54134 13.1177 2.58585 13.04 2.66358C12.9622 2.74131 12.9177 2.84617 12.9158 2.95608V4.12941H7.08245V2.95608C7.08245 2.73774 6.89078 2.52941 6.66578 2.53941C6.55588 2.54134 6.45101 2.58585 6.37329 2.66358C6.29556 2.74131 6.25104 2.84617 6.24911 2.95608V4.12941H4.63411C4.08178 4.13007 3.55226 4.34978 3.16171 4.74033C2.77115 5.13089 2.55144 5.66041 2.55078 6.21274V15.3794C2.55078 16.5286 3.48578 17.4627 4.63411 17.4627H15.3633C16.5124 17.4627 17.4466 16.5286 17.4466 15.3794V6.21274C17.4462 5.66049 17.2267 5.13097 16.8362 4.74038C16.4458 4.3498 15.9164 4.13007 15.3641 4.12941ZM4.63411 4.96274H6.24911V5.45608C6.24911 5.67441 6.44078 5.88274 6.66578 5.87274C6.89161 5.86274 7.08245 5.68941 7.08245 5.45608V4.96274H12.9158V5.45608C12.9158 5.67441 13.1074 5.88274 13.3324 5.87274C13.5583 5.86274 13.7491 5.68941 13.7491 5.45608V4.96274H15.3633C16.0524 4.96274 16.6133 5.52358 16.6133 6.21274V7.53274H3.38411V6.21274C3.38411 5.52358 3.94495 4.96274 4.63411 4.96274ZM15.3641 16.6294H4.63411C3.94495 16.6294 3.38411 16.0686 3.38411 15.3794V8.36608H16.6133V15.3794C16.6133 15.7108 16.4817 16.0286 16.2475 16.263C16.0132 16.4974 15.6955 16.6292 15.3641 16.6294Z" fill="#4FE5D2"/>
</svg>
