<svg width="33" height="33" viewBox="0 0 33 33" fill="none" xmlns="http://www.w3.org/2000/svg">
<path d="M28.875 11.7857H30.9375V33H28.875V11.7857ZM8.25 20.0357L10.3125 17.6786V33H8.25V20.0357ZM4.125 24.75L6.1875 22.3929V33H4.125V24.75ZM12.375 15.3214L14.4375 12.9643V33H12.375V15.3214ZM16.5 12.9643L18.5625 15.3214V32.9816H16.5V12.9643ZM21.6562 18.8571L22.6875 17.6786V33H20.625V17.6786L21.6562 18.8571ZM24.75 15.3214L26.8125 12.9643V33H24.75V15.3214ZM0 29.4643L2.0625 27.1071V33H0V29.4643ZM33 0V9.42857H30.9375V4.03292L21.6562 14.6217L15.4688 7.55022L0 25.2472V21.8956L15.4688 4.23549L21.6562 11.3069L29.4712 2.35714H24.75V0H33Z" fill="white"/>
</svg>
