<svg width="60" height="60" viewBox="0 0 60 60" fill="none" xmlns="http://www.w3.org/2000/svg">
<rect width="60" height="60" rx="30" fill="#0047AB"/>
<path d="M39.875 26.8571H41.4375V41H39.875V26.8571ZM24.25 32.3571L25.8125 30.7857V41H24.25V32.3571ZM21.125 35.5L22.6875 33.9286V41H21.125V35.5ZM27.375 29.2143L28.9375 27.6429V41H27.375V29.2143ZM30.5 27.6429L32.0625 29.2143V40.9877H30.5V27.6429ZM34.4062 31.5714L35.1875 30.7857V41H33.625V30.7857L34.4062 31.5714ZM36.75 29.2143L38.3125 27.6429V41H36.75V29.2143ZM18 38.6429L19.5625 37.0714V41H18V38.6429ZM43 19V25.2857H41.4375V21.6886L34.4062 28.7478L29.7188 24.0335L18 35.8315V33.5971L29.7188 21.8237L34.4062 26.5379L40.3267 20.5714H36.75V19H43Z" fill="white"/>
</svg>
