<svg width="20" height="20" viewBox="0 0 20 20" fill="none" xmlns="http://www.w3.org/2000/svg">
<path d="M9.99828 10.7272C7.43478 10.7272 5.34928 8.64169 5.34928 6.07819C5.34928 3.51469 7.43478 1.42969 9.99828 1.42969C12.5618 1.42969 14.6473 3.51519 14.6473 6.07869C14.6473 8.64219 12.5618 10.7272 9.99828 10.7272ZM9.99828 1.87119C7.67878 1.87119 5.79128 3.75869 5.79128 6.07819C5.79128 8.39769 7.67878 10.2852 9.99828 10.2852C12.3178 10.2852 14.2053 8.39769 14.2053 6.07819C14.2053 3.75869 12.3178 1.87119 9.99828 1.87119ZM18.4123 18.5687H1.58428C1.52567 18.5687 1.46946 18.5454 1.42801 18.504C1.38657 18.4625 1.36328 18.4063 1.36328 18.3477V15.4942C1.56478 11.8697 4.83028 11.6512 4.86328 11.6492L15.1198 11.6487C15.1648 11.6507 18.4313 11.8697 18.6323 15.4817L18.6328 18.3477C18.6329 18.3767 18.6273 18.4055 18.6163 18.4323C18.6052 18.4591 18.589 18.4835 18.5685 18.5041C18.548 18.5246 18.5237 18.5409 18.4969 18.552C18.47 18.5631 18.4413 18.5688 18.4123 18.5687ZM1.80528 18.1272H18.1913V15.4942C18.0123 12.2852 15.2268 12.0967 15.1083 12.0902L4.87578 12.0907C4.76978 12.0972 1.98428 12.2957 1.80528 15.5062V18.1272Z" fill="#4FE5D2"/>
</svg>
