<svg width="33" height="34" viewBox="0 0 33 34" fill="none" xmlns="http://www.w3.org/2000/svg">
<path d="M16.5 0.359375L33 5.35505V16.8594C33 22.75 28.8189 26.8679 24.9216 29.4242C22.5692 30.9529 19.9882 32.1989 17.2491 33.1281C17.2014 33.1441 17.1535 33.1598 17.1055 33.1752L17.0643 33.1881L17.0527 33.1909L17.0478 33.1924C17.0478 33.1924 17.0445 33.1924 16.5 31.8464L15.9538 33.1938L15.9472 33.1909L15.9357 33.1881L15.8944 33.1738C15.6741 33.1034 15.4551 33.0296 15.2377 32.9526C12.6877 32.0429 10.2814 30.8568 8.07675 29.4228C4.18275 26.8693 0 22.7514 0 16.8608V5.35505L16.5 0.359375ZM16.5 31.8464L15.9538 33.1938L16.5 33.3594L17.0462 33.1938L16.5 31.8464ZM16.5 30.3163L16.5148 30.3106C18.7982 29.4949 20.9532 28.4326 22.9284 27.149C26.4561 24.8382 29.7 21.4597 29.7 16.8594V7.38187L16.5 3.38533L3.3 7.38187V16.8594C3.3 21.4597 6.5439 24.8353 10.0716 27.1505C12.0512 28.436 14.2112 29.5007 16.5 30.3163ZM26.5188 11.6396L14.8516 21.7323L7.8507 15.6775L10.1854 13.6579L14.85 17.6958L24.184 9.62136L26.5171 11.6396H26.5188Z" fill="#F4F4F4"/>
</svg>
