<svg width="81" height="82" viewBox="0 0 81 82" fill="none" xmlns="http://www.w3.org/2000/svg">
<rect y="0.0859375" width="81" height="81" rx="40.5" fill="#0047AB"/>
<path d="M40.4998 22.3594L56.6998 27.724V40.0781C56.6998 46.4038 52.5947 50.8259 48.7683 53.571C46.4586 55.2127 43.9246 56.5507 41.2353 57.5486C41.1884 57.5657 41.1414 57.5826 41.0943 57.5991L41.0538 57.6129L41.0425 57.616L41.0376 57.6175C41.0376 57.6175 41.0344 57.6175 40.4998 56.1721L39.9636 57.6191L39.9571 57.616L39.9458 57.6129L39.9053 57.5976C39.6889 57.522 39.4739 57.4428 39.2605 57.36C36.7568 56.3832 34.3943 55.1095 32.2297 53.5695C28.4065 50.8274 24.2998 46.4054 24.2998 40.0797V27.724L40.4998 22.3594ZM40.4998 56.1721L39.9636 57.6191L40.4998 57.7969L41.036 57.6191L40.4998 56.1721ZM40.4998 54.529L40.5144 54.5229C42.7563 53.6469 44.872 52.5062 46.8113 51.1278C50.2749 48.6463 53.4598 45.0182 53.4598 40.0781V29.9006L40.4998 25.6088L27.5398 29.9006V40.0781C27.5398 45.0182 30.7247 48.6432 34.1883 51.1294C36.1319 52.5099 38.2526 53.6532 40.4998 54.529ZM50.3364 34.4728L38.8814 45.311L32.0078 38.809L34.3001 36.6401L38.8798 40.9763L48.0441 32.3055L50.3348 34.4728H50.3364Z" fill="#F4F4F4"/>
</svg>
