<svg width="15" height="15" viewBox="0 0 15 15" fill="none" xmlns="http://www.w3.org/2000/svg">
<path d="M2.91667 8.75H12.0833V7.91667H2.91667V8.75ZM2.91667 6.25H12.0833V5.41667H2.91667V6.25ZM2.91667 3.75H12.0833V2.91667H2.91667V3.75ZM15 14.2308L12.4358 11.6667H1.34583C0.9625 11.6667 0.6425 11.5383 0.385833 11.2817C0.128611 11.0244 0 10.7042 0 10.3208V1.34583C0 0.9625 0.128611 0.6425 0.385833 0.385833C0.6425 0.128611 0.9625 0 1.34583 0H13.6542C14.0375 0 14.3575 0.128611 14.6142 0.385833C14.8714 0.6425 15 0.9625 15 1.34583V14.2308ZM1.34583 10.8333H12.7917L14.1667 12.2033V1.34583C14.1667 1.21806 14.1133 1.10056 14.0067 0.993333C13.8994 0.886667 13.7819 0.833333 13.6542 0.833333H1.34583C1.21806 0.833333 1.10056 0.886667 0.993333 0.993333C0.886667 1.10056 0.833333 1.21806 0.833333 1.34583V10.3208C0.833333 10.4486 0.886667 10.5661 0.993333 10.6733C1.10056 10.78 1.21806 10.8333 1.34583 10.8333Z" fill="#4FE5D2"/>
</svg>
