<svg width="16" height="14" viewBox="0 0 16 14" fill="none" xmlns="http://www.w3.org/2000/svg">
<path d="M14.875 2.9375H8.12969L5.90391 0.712503C5.81719 0.625075 5.71398 0.555744 5.60025 0.508536C5.48652 0.461328 5.36454 0.437183 5.24141 0.437503H1.125C0.87636 0.437503 0.637903 0.536275 0.462087 0.71209C0.286272 0.887906 0.1875 1.12636 0.1875 1.375V12.6734C0.187913 12.9091 0.281714 13.135 0.448357 13.3016C0.614999 13.4683 0.840895 13.5621 1.07656 13.5625H14.9445C15.1747 13.5623 15.3953 13.4708 15.558 13.3081C15.7208 13.1453 15.8123 12.9247 15.8125 12.6945V3.875C15.8125 3.62636 15.7137 3.38791 15.5379 3.21209C15.3621 3.03628 15.1236 2.9375 14.875 2.9375ZM0.8125 1.375C0.8125 1.29212 0.845424 1.21264 0.904029 1.15403C0.962634 1.09543 1.04212 1.0625 1.125 1.0625H5.24141C5.32404 1.06264 5.40325 1.09551 5.46172 1.15391L7.24531 2.9375H0.8125V1.375ZM15.1875 12.6945C15.1873 12.7589 15.1616 12.8206 15.1161 12.8661C15.0706 12.9116 15.0089 12.9373 14.9445 12.9375H1.07656C1.00659 12.9373 0.939547 12.9094 0.89007 12.8599C0.840593 12.8105 0.812706 12.7434 0.8125 12.6734V3.5625H14.875C14.9579 3.5625 15.0374 3.59543 15.096 3.65403C15.1546 3.71264 15.1875 3.79212 15.1875 3.875V12.6945Z" fill="#4FE5D2"/>
</svg>
