<svg width="22" height="24" viewBox="0 0 22 24" fill="none" xmlns="http://www.w3.org/2000/svg">
<path fill-rule="evenodd" clip-rule="evenodd" d="M5.5 9C5.5 7.67392 6.07946 6.40215 7.11091 5.46447C8.14236 4.52678 9.54131 4 11 4C12.4587 4 13.8576 4.52678 14.8891 5.46447C15.9205 6.40215 16.5 7.67392 16.5 9C16.5 10.3261 15.9205 11.5979 14.8891 12.5355C13.8576 13.4732 12.4587 14 11 14C9.54131 14 8.14236 13.4732 7.11091 12.5355C6.07946 11.5979 5.5 10.3261 5.5 9ZM11 6C10.1248 6 9.28542 6.31607 8.66655 6.87868C8.04768 7.44129 7.7 8.20435 7.7 9C7.7 9.79565 8.04768 10.5587 8.66655 11.1213C9.28542 11.6839 10.1248 12 11 12C11.8752 12 12.7146 11.6839 13.3335 11.1213C13.9523 10.5587 14.3 9.79565 14.3 9C14.3 8.20435 13.9523 7.44129 13.3335 6.87868C12.7146 6.31607 11.8752 6 11 6Z" fill="#F4F4F4"/>
<path fill-rule="evenodd" clip-rule="evenodd" d="M1.13465 7.77445C1.32263 5.65549 2.36139 3.6797 4.04467 2.23944C5.72794 0.799181 7.9326 -0.000213056 10.2209 4.25941e-08H10.6822C12.9704 -0.000213056 15.1751 0.799181 16.8584 2.23944C18.5416 3.6797 19.5804 5.65549 19.7684 7.77445C19.9773 10.1296 19.1943 12.4681 17.5844 14.2975L12.4661 20.1128C12.222 20.3901 11.9146 20.6135 11.5662 20.767C11.2178 20.9204 10.8371 21 10.4515 21C10.0659 21 9.6852 20.9204 9.3368 20.767C8.9884 20.6135 8.68104 20.3901 8.43694 20.1128L3.31865 14.2975C1.70907 12.4684 0.926118 10.1304 1.13465 7.77577V7.77445ZM10.2209 1.98429C8.46869 1.98409 6.78052 2.59617 5.49156 3.69896C4.20261 4.80176 3.40714 6.31463 3.26312 7.93716C3.09927 9.7802 3.71178 11.6104 4.97159 13.0421L10.0899 18.8574C10.2764 19.069 10.6266 19.069 10.8131 18.8574L15.9314 13.0421C17.1912 11.6104 17.8037 9.7802 17.6399 7.93716C17.4959 6.31463 16.7004 4.80176 15.4115 3.69896C14.1225 2.59617 12.4343 1.98409 10.6822 1.98429H10.2209Z" fill="#F4F4F4"/>
<path d="M4.85338 18.4146C4.92419 18.3026 4.96872 18.1789 4.98428 18.0511C4.99983 17.9233 4.98608 17.7941 4.94387 17.6711C4.90165 17.5482 4.83185 17.4342 4.73869 17.3361C4.64554 17.2379 4.53097 17.1577 4.40196 17.1002C4.27294 17.0427 4.13216 17.0092 3.98816 17.0016C3.84417 16.9941 3.69995 17.0127 3.56428 17.0564C3.42861 17.1 3.3043 17.1678 3.19891 17.2556C3.09352 17.3434 3.00924 17.4493 2.95119 17.567L0.112109 22.6274C0.0311281 22.7719 -0.00708837 22.9325 0.00108175 23.0939C0.00925187 23.2553 0.0635381 23.4122 0.158795 23.5497C0.254051 23.6872 0.387122 23.8007 0.545396 23.8795C0.70367 23.9583 0.881903 23.9998 1.0632 24H20.9368C21.1181 23.9998 21.2963 23.9583 21.4546 23.8795C21.6129 23.8007 21.7459 23.6872 21.8412 23.5497C21.9365 23.4122 21.9907 23.2553 21.9989 23.0939C22.0071 22.9325 21.9689 22.7719 21.8879 22.6274L19.0488 17.567C18.9908 17.4493 18.9065 17.3434 18.8011 17.2556C18.6957 17.1678 18.5714 17.1 18.4357 17.0564C18.3 17.0127 18.1558 16.9941 18.0118 17.0016C17.8678 17.0092 17.7271 17.0427 17.598 17.1002C17.469 17.1577 17.3545 17.2379 17.2613 17.3361C17.1682 17.4342 17.0983 17.5482 17.0561 17.6711C17.0139 17.7941 17.0002 17.9233 17.0157 18.0511C17.0313 18.1789 17.0758 18.3026 17.1466 18.4146L19.2149 22.1024H2.78511L4.85338 18.4146Z" fill="#F4F4F4"/>
</svg>
