<svg width="33" height="33" viewBox="0 0 33 33" fill="none" xmlns="http://www.w3.org/2000/svg">
<path d="M9.43799 23.8628L12.3436 23.0247L29.8386 5.32122C29.9766 5.17982 30.0534 4.98981 30.0525 4.79224C30.0515 4.59466 29.9729 4.40539 29.8336 4.26528L28.7859 3.20604C28.7182 3.13648 28.6373 3.0811 28.5479 3.04313C28.4586 3.00516 28.3626 2.98537 28.2655 2.98491C28.1684 2.98445 28.0722 3.00333 27.9825 3.04044C27.8928 3.07756 27.8114 3.13217 27.7431 3.20109L10.2943 20.8584L9.43634 23.8612L9.43799 23.8628ZM30.8599 1.10737L31.9077 2.16825C33.3531 3.63172 33.3662 5.99273 31.9341 7.44135L13.9062 25.686L7.69559 27.4745C7.31641 27.5806 6.91062 27.532 6.56726 27.3393C6.22389 27.1466 5.97101 26.8255 5.86409 26.4466C5.78453 26.1741 5.78339 25.8848 5.86079 25.6117L7.66754 19.2761L25.6476 1.07932C25.9895 0.735079 26.3965 0.462356 26.8449 0.277057C27.2933 0.0917569 27.7741 -0.00241036 28.2593 4.68785e-05C28.7444 0.00250412 29.2243 0.101537 29.6708 0.291369C30.1173 0.481201 30.5215 0.759682 30.8599 1.10737ZM11.8536 3.00971C12.672 3.00971 13.3353 3.68122 13.3353 4.50947C13.3366 4.70526 13.2993 4.89939 13.2255 5.08075C13.1517 5.26212 13.0429 5.42716 12.9053 5.56645C12.7677 5.70574 12.604 5.81654 12.4235 5.89251C12.2431 5.96849 12.0494 6.00815 11.8536 6.00923H5.92679C4.28999 6.00923 2.9634 7.35225 2.9634 9.0071V27.001C2.9634 28.6575 4.28999 30.0005 5.92679 30.0005H23.7072C25.344 30.0005 26.6722 28.6575 26.6722 27.001V21.0036C26.6722 20.1753 27.3355 19.5038 28.1539 19.5038C28.9723 19.5038 29.6356 20.1753 29.6356 21.0052V27.001C29.6356 30.314 26.9808 33 23.7072 33H5.92679C2.6532 33 0 30.314 0 27.001V9.0071C0 5.69575 2.6532 3.00971 5.92679 3.00971H11.8536Z" fill="white"/>
</svg>
