<svg width="60" height="60" viewBox="0 0 60 60" fill="none" xmlns="http://www.w3.org/2000/svg">
<rect width="60" height="60" rx="30" fill="#0047AB"/>
<path d="M24.15 35.0779L26.3512 34.4429L39.605 21.0312C39.7095 20.9241 39.7677 20.7802 39.767 20.6305C39.7663 20.4808 39.7068 20.3374 39.6012 20.2313L38.8075 19.4288C38.7562 19.3761 38.6949 19.3342 38.6272 19.3054C38.5595 19.2766 38.4868 19.2616 38.4133 19.2613C38.3397 19.2609 38.2668 19.2752 38.1989 19.3034C38.1309 19.3315 38.0693 19.3729 38.0175 19.4251L24.7987 32.8018L24.1487 35.0767L24.15 35.0779ZM40.3787 17.8389L41.1725 18.6426C42.2675 19.7513 42.2775 21.5399 41.1925 22.6374L27.535 36.4591L22.83 37.814C22.5427 37.8944 22.2353 37.8576 21.9752 37.7116C21.7151 37.5656 21.5235 37.3224 21.4425 37.0353C21.3822 36.8289 21.3814 36.6097 21.44 36.4028L22.8087 31.6031L36.43 17.8177C36.689 17.5569 36.9973 17.3503 37.337 17.2099C37.6767 17.0695 38.041 16.9982 38.4085 17C38.7761 17.0019 39.1396 17.0769 39.4779 17.2207C39.8161 17.3645 40.1224 17.5755 40.3787 17.8389ZM25.98 19.2801C26.6 19.2801 27.1025 19.7888 27.1025 20.4163C27.1035 20.5646 27.0752 20.7117 27.0193 20.8491C26.9634 20.9865 26.881 21.1115 26.7768 21.217C26.6725 21.3225 26.5485 21.4065 26.4118 21.464C26.275 21.5216 26.1283 21.5516 25.98 21.5524H21.49C20.25 21.5524 19.245 22.5699 19.245 23.8236V37.4553C19.245 38.7102 20.25 39.7276 21.49 39.7276H34.96C36.2 39.7276 37.2062 38.7102 37.2062 37.4553V32.9118C37.2062 32.2843 37.7087 31.7756 38.3287 31.7756C38.9487 31.7756 39.4512 32.2843 39.4512 32.913V37.4553C39.4512 39.9651 37.44 42 34.96 42H21.49C19.01 42 17 39.9651 17 37.4553V23.8236C17 21.315 19.01 19.2801 21.49 19.2801H25.98Z" fill="white"/>
</svg>
