<svg width="81" height="82" viewBox="0 0 81 82" fill="none" xmlns="http://www.w3.org/2000/svg">
<rect y="0.0859375" width="81" height="81" rx="40.5" fill="#0047AB"/>
<path d="M56.9532 23.375C57.4232 23.375 57.8738 23.566 58.2061 23.906C58.5384 24.246 58.7251 24.7072 58.7251 25.188C58.7251 25.6689 58.5384 26.13 58.2061 26.47C57.8738 26.81 57.4232 27.001 56.9532 27.001V46.9442C56.9532 47.9059 56.5799 48.8282 55.9153 49.5082C55.2507 50.1882 54.3493 50.5702 53.4095 50.5702H44.4526L48.5156 54.7275C48.8383 55.0694 49.0169 55.5274 49.0129 56.0027C49.0088 56.4781 48.8225 56.9328 48.494 57.269C48.1655 57.6051 47.721 57.7958 47.2565 57.7999C46.7919 57.8041 46.3443 57.6213 46.0101 57.2911L40.9975 52.1639L35.9866 57.2911C35.6524 57.6213 35.2049 57.8041 34.7403 57.7999C34.2757 57.7958 33.8313 57.6051 33.5028 57.269C33.1743 56.9328 32.9879 56.4781 32.9839 56.0027C32.9798 55.5274 33.1584 55.0694 33.4812 54.7275L37.5441 50.5702H28.6032C27.6634 50.5702 26.762 50.1882 26.0974 49.5082C25.4328 48.8282 25.0595 47.9059 25.0595 46.9442V27.001C24.5895 27.001 24.1389 26.81 23.8066 26.47C23.4743 26.13 23.2876 25.6689 23.2876 25.188C23.2876 24.7072 23.4743 24.246 23.8066 23.906C24.1389 23.566 24.5895 23.375 25.0595 23.375H56.9532ZM53.4095 27.001H28.6032V46.9442H53.4095V27.001ZM33.9188 37.8791C34.3528 37.8792 34.7717 38.0422 35.096 38.3373C35.4203 38.6324 35.6275 39.039 35.6783 39.48L35.6907 39.6921V41.5051C35.6902 41.9672 35.5173 42.4117 35.2073 42.7477C34.8972 43.0837 34.4735 43.286 34.0227 43.313C33.5718 43.3401 33.1279 43.19 32.7816 42.8934C32.4353 42.5968 32.2127 42.1761 32.1594 41.7173L32.147 41.5051V39.6921C32.147 39.2113 32.3337 38.7501 32.6659 38.4101C32.9982 38.0701 33.4489 37.8791 33.9188 37.8791ZM41.0063 34.2531C41.4763 34.2531 41.927 34.4441 42.2593 34.7841C42.5915 35.1241 42.7782 35.5853 42.7782 36.0661V41.5051C42.7782 41.986 42.5915 42.4471 42.2593 42.7871C41.927 43.1271 41.4763 43.3182 41.0063 43.3182C40.5364 43.3182 40.0857 43.1271 39.7534 42.7871C39.4212 42.4471 39.2345 41.986 39.2345 41.5051V36.0661C39.2345 35.5853 39.4212 35.1241 39.7534 34.7841C40.0857 34.4441 40.5364 34.2531 41.0063 34.2531ZM48.0938 30.6271C48.5278 30.6271 48.9467 30.7901 49.271 31.0852C49.5953 31.3803 49.8025 31.7869 49.8533 32.228L49.8657 32.4401V41.5051C49.8652 41.9672 49.6923 42.4117 49.3823 42.7477C49.0722 43.0837 48.6485 43.286 48.1977 43.313C47.7469 43.3401 47.3029 43.19 46.9566 42.8934C46.6103 42.5968 46.3877 42.1761 46.3344 41.7173L46.322 41.5051V32.4401C46.322 31.9592 46.5087 31.4981 46.8409 31.1581C47.1732 30.8181 47.6239 30.6271 48.0938 30.6271Z" fill="white"/>
</svg>
