<svg width="33" height="33" viewBox="0 0 33 33" fill="none" xmlns="http://www.w3.org/2000/svg">
<path d="M31.35 0C31.7876 0 32.2073 0.183107 32.5167 0.509038C32.8262 0.83497 33 1.27703 33 1.73797C33 2.1989 32.8262 2.64096 32.5167 2.96689C32.2073 3.29283 31.7876 3.47593 31.35 3.47593V22.5936C31.35 23.5154 31.0023 24.3996 30.3835 25.0514C29.7646 25.7033 28.9252 26.0695 28.05 26.0695H19.7092L23.4927 30.0546C23.7933 30.3824 23.9596 30.8214 23.9558 31.2771C23.9521 31.7328 23.7785 32.1687 23.4726 32.491C23.1667 32.8132 22.7528 32.996 22.3202 32.9999C21.8876 33.0039 21.4708 32.8287 21.1596 32.5121L16.4918 27.5972L11.8256 32.5121C11.5144 32.8287 11.0976 33.0039 10.6649 32.9999C10.2323 32.996 9.81847 32.8132 9.51255 32.491C9.20663 32.1687 9.0331 31.7328 9.02934 31.2771C9.02558 30.8214 9.19189 30.3824 9.49245 30.0546L13.2759 26.0695H4.95C4.07479 26.0695 3.23542 25.7033 2.61655 25.0514C1.99768 24.3996 1.65 23.5154 1.65 22.5936V3.47593C1.21239 3.47593 0.792709 3.29283 0.483274 2.96689C0.173839 2.64096 0 2.1989 0 1.73797C0 1.27703 0.173839 0.83497 0.483274 0.509038C0.792709 0.183107 1.21239 0 1.65 0H31.35ZM28.05 3.47593H4.95V22.5936H28.05V3.47593ZM9.9 13.9037C10.3041 13.9038 10.6942 14.0601 10.9962 14.3429C11.2982 14.6258 11.4912 15.0156 11.5385 15.4384L11.55 15.6417V17.3797C11.5495 17.8226 11.3885 18.2487 11.0998 18.5708C10.8111 18.8929 10.4165 19.0868 9.9967 19.1127C9.57687 19.1387 9.16348 18.9948 8.84098 18.7105C8.51848 18.4262 8.31122 18.0229 8.26155 17.583L8.25 17.3797V15.6417C8.25 15.1808 8.42384 14.7387 8.73327 14.4128C9.04271 14.0868 9.46239 13.9037 9.9 13.9037ZM16.5 10.4278C16.9376 10.4278 17.3573 10.6109 17.6667 10.9368C17.9762 11.2628 18.15 11.7048 18.15 12.1658V17.3797C18.15 17.8406 17.9762 18.2827 17.6667 18.6086C17.3573 18.9345 16.9376 19.1176 16.5 19.1176C16.0624 19.1176 15.6427 18.9345 15.3333 18.6086C15.0238 18.2827 14.85 17.8406 14.85 17.3797V12.1658C14.85 11.7048 15.0238 11.2628 15.3333 10.9368C15.6427 10.6109 16.0624 10.4278 16.5 10.4278ZM23.1 6.95186C23.5041 6.95192 23.8942 7.1082 24.1962 7.39107C24.4982 7.67394 24.6912 8.06373 24.7384 8.48649L24.75 8.68983V17.3797C24.7495 17.8226 24.5885 18.2487 24.2998 18.5708C24.0111 18.8929 23.6165 19.0868 23.1967 19.1127C22.7769 19.1387 22.3635 18.9948 22.041 18.7105C21.7185 18.4262 21.5112 18.0229 21.4616 17.583L21.45 17.3797V8.68983C21.45 8.22889 21.6238 7.78684 21.9333 7.4609C22.2427 7.13497 22.6624 6.95186 23.1 6.95186Z" fill="white"/>
</svg>
