<svg width="20" height="20" viewBox="0 0 20 20" fill="none" xmlns="http://www.w3.org/2000/svg">
<path d="M13.1688 3.1409C13.0946 3.07141 13.0018 3.02511 12.9017 3.0077C12.8017 2.9903 12.6987 3.00254 12.6054 3.04293C12.5122 3.08331 12.4329 3.15008 12.3771 3.235C12.3214 3.31993 12.2917 3.41931 12.2917 3.5209V5.8009C12.1425 5.80423 11.9688 5.8134 11.775 5.8309C11.1354 5.89006 10.2683 6.05006 9.36833 6.45798C7.53417 7.28923 5.64917 9.11381 5.21167 12.9413C5.19975 13.0461 5.21993 13.152 5.26952 13.2451C5.31911 13.3382 5.39578 13.414 5.4894 13.4625C5.58301 13.5111 5.68916 13.5301 5.7938 13.517C5.89844 13.5039 5.99664 13.4593 6.07542 13.3892C7.88167 11.7834 9.57417 11.0921 10.7987 10.798C11.2748 10.6809 11.7614 10.6115 12.2513 10.5909L12.2917 10.5896V12.8959C12.2917 12.9975 12.3214 13.0969 12.3771 13.1818C12.4329 13.2667 12.5122 13.3335 12.6054 13.3739C12.6987 13.4143 12.8017 13.4265 12.9017 13.4091C13.0018 13.3917 13.0946 13.3454 13.1688 13.2759L18.1688 8.5884C18.2207 8.53968 18.2621 8.48082 18.2905 8.41546C18.3188 8.3501 18.3334 8.27963 18.3334 8.2084C18.3334 8.13716 18.3188 8.06669 18.2905 8.00133C18.2621 7.93597 18.2207 7.87711 18.1688 7.82839L13.1688 3.1409ZM12.7525 6.85089L12.7608 6.85173H12.7617C12.834 6.85888 12.9067 6.85081 12.9757 6.82801C13.0448 6.80522 13.1083 6.76822 13.1622 6.71939C13.2161 6.67057 13.2592 6.61099 13.2886 6.54451C13.3181 6.47803 13.3333 6.40612 13.3333 6.3334V4.72298L17.0508 8.2084L13.3333 11.6938V10.0834C13.3333 9.8209 13.1442 9.60006 12.8771 9.56673H12.8758L12.8742 9.56631L12.87 9.5659L12.8583 9.56464C12.8015 9.55909 12.7445 9.55492 12.6875 9.55215C12.5301 9.5447 12.3725 9.54386 12.215 9.54964C11.8125 9.56381 11.2442 9.62048 10.5554 9.78548C9.43875 10.0534 8.01417 10.6067 6.48125 11.7242C7.10042 9.1909 8.5075 7.99173 9.79792 7.40673C10.565 7.05923 11.3125 6.92006 11.8708 6.8684C12.1492 6.84256 12.3775 6.83923 12.5338 6.84173C12.6067 6.84284 12.6797 6.84589 12.7525 6.85089ZM5.10417 3.62506C4.4135 3.62506 3.75112 3.89943 3.26274 4.3878C2.77437 4.87618 2.5 5.53856 2.5 6.22923V15.1876C2.5 15.8782 2.77437 16.5406 3.26274 17.029C3.75112 17.5174 4.4135 17.7917 5.10417 17.7917H14.0625C14.7532 17.7917 15.4155 17.5174 15.9039 17.029C16.3923 16.5406 16.6667 15.8782 16.6667 15.1876V14.2501C16.6667 14.1119 16.6118 13.9795 16.5141 13.8818C16.4164 13.7841 16.284 13.7292 16.1458 13.7292C16.0077 13.7292 15.8752 13.7841 15.7775 13.8818C15.6799 13.9795 15.625 14.1119 15.625 14.2501V15.1876C15.625 15.602 15.4604 15.9994 15.1674 16.2924C14.8743 16.5854 14.4769 16.7501 14.0625 16.7501H5.10417C4.68977 16.7501 4.29234 16.5854 3.99931 16.2924C3.70629 15.9994 3.54167 15.602 3.54167 15.1876V6.22923C3.54167 5.81483 3.70629 5.4174 3.99931 5.12437C4.29234 4.83135 4.68977 4.66673 5.10417 4.66673H8.54167C8.6798 4.66673 8.81228 4.61186 8.90995 4.51418C9.00763 4.4165 9.0625 4.28403 9.0625 4.1459C9.0625 4.00776 9.00763 3.87529 8.90995 3.77761C8.81228 3.67994 8.6798 3.62506 8.54167 3.62506H5.10417Z" fill="#4FE5D2"/>
</svg>
