<svg width="24" height="22" viewBox="0 0 24 22" fill="none" xmlns="http://www.w3.org/2000/svg">
<path d="M1 6.92308C1 1 6.92308 1 12 1C17.0769 1 23 1 23 6.92308C23 13.6923 17.0769 6.07692 17.0769 6.07692H6.92308C6.92308 6.07692 1 13.6923 1 6.92308ZM7.76923 8.61538C7.76923 8.61538 3.53846 12.8462 3.53846 20.4615H20.4615C20.4615 12.8462 16.2308 8.61538 16.2308 8.61538H7.76923Z" stroke="#F4F4F4" stroke-width="2" stroke-linecap="round" stroke-linejoin="round"/>
<path d="M12.0018 17.9216C13.8711 17.9216 15.3864 16.4062 15.3864 14.537C15.3864 12.6677 13.8711 11.1523 12.0018 11.1523C10.1325 11.1523 8.61719 12.6677 8.61719 14.537C8.61719 16.4062 10.1325 17.9216 12.0018 17.9216Z" stroke="#F4F4F4" stroke-width="2" stroke-linecap="round" stroke-linejoin="round"/>
</svg>
