<svg width="24" height="24" viewBox="0 0 24 24" fill="none" xmlns="http://www.w3.org/2000/svg">
<path d="M5.58203 9.24869C5.58203 8.27623 5.96832 7.3436 6.65592 6.65597C7.34353 5.96834 8.27611 5.58203 9.24853 5.58203L11.0818 9.24869L9.67018 11.365C10.2301 12.7031 11.294 13.767 12.632 14.327L14.7483 12.9154L18.4148 14.7487C18.4148 15.7211 18.0285 16.6538 17.3409 17.3414C16.6533 18.029 15.7207 18.4153 14.7483 18.4153C12.3172 18.4153 9.98577 17.4496 8.26676 15.7305C6.54776 14.0114 5.58203 11.6798 5.58203 9.24869Z" stroke="#F4F4F4" stroke-width="2" stroke-linecap="round" stroke-linejoin="round"/>
<path d="M6.49069 21.5204C8.80119 22.8577 11.5192 23.3091 14.1378 22.7903C16.7565 22.2716 19.0972 20.8181 20.7234 18.701C22.3497 16.5838 23.1505 13.9475 22.9766 11.2835C22.8027 8.61944 21.666 6.10959 19.7783 4.22183C17.8906 2.33408 15.3809 1.19728 12.717 1.02338C10.0531 0.849473 7.41686 1.65034 5.29981 3.27666C3.18276 4.90298 1.72938 7.24375 1.21064 9.86255C0.691911 12.4813 1.14323 15.1994 2.48045 17.51L1.04708 21.7897C0.993218 21.9512 0.985402 22.1246 1.02451 22.2903C1.06361 22.456 1.14809 22.6075 1.26847 22.7279C1.38886 22.8483 1.54039 22.9328 1.70609 22.9719C1.87179 23.011 2.0451 23.0032 2.20661 22.9493L6.49069 21.5204Z" stroke="#F4F4F4" stroke-width="2" stroke-linecap="round" stroke-linejoin="round"/>
</svg>
