<?xml version="1.0" encoding="utf-8"?>
<!-- Generator: Adobe Illustrator 27.5.0, SVG Export Plug-In . SVG Version: 6.00 Build 0)  -->
<svg version="1.1" id="Layer_1" xmlns="http://www.w3.org/2000/svg" xmlns:xlink="http://www.w3.org/1999/xlink" x="0px" y="0px"
	 viewBox="0 0 482 405" style="enable-background:new 0 0 482 405;" xml:space="preserve">
<style type="text/css">
	.st0{fill:#FFFFFF;}
	.st1{clip-path:url(#SVGID_00000084531102625836304580000003441921307563122615_);}
	.st2{fill:#EDEFF5;}
	.st3{fill:#40DCCC;}
	.st4{fill:#6081EA;}
	.st5{fill:#9399AB;}
	.st6{clip-path:url(#SVGID_00000094598653545059379780000017420037076541565334_);}
	.st7{clip-path:url(#SVGID_00000060747074483722846580000000456969852912064418_);}
	.st8{clip-path:url(#SVGID_00000094616440478633235600000006087839644347639180_);}
	.st9{clip-path:url(#SVGID_00000182525270864448764930000013006658899376797832_);}
	.st10{clip-path:url(#SVGID_00000110430390729034137280000010192449177372397957_);}
	.st11{fill-rule:evenodd;clip-rule:evenodd;fill:#40DCCC;}
	.st12{clip-path:url(#SVGID_00000083084481132763478730000010553713318049009320_);}
	.st13{clip-path:url(#SVGID_00000064334512993874278230000000134571437719815598_);}
	.st14{fill:#29292F;}
	.st15{clip-path:url(#SVGID_00000049189165679828977950000012673089355254991270_);}
	.st16{clip-path:url(#SVGID_00000060729072927561635510000007554075848302390182_);}
</style>
<g>
	<g>
		<path class="st0" d="M64,52h362c6.6,0,12,5.4,12,12v285c0,6.6-5.4,12-12,12H64c-6.6,0-12-5.4-12-12V64C52,57.4,57.4,52,64,52z"/>
	</g>
	<g>
		<defs>
			<rect id="SVGID_1_" x="66" y="66" width="25" height="242"/>
		</defs>
		<clipPath id="SVGID_00000129207213523154723610000004046782001963917446_">
			<use xlink:href="#SVGID_1_"  style="overflow:visible;"/>
		</clipPath>
		<g style="clip-path:url(#SVGID_00000129207213523154723610000004046782001963917446_);">
			<path class="st2" d="M69,76c0-5.5,4.5-10,10-10s10,4.5,10,10v204H69V76z"/>
			<path class="st3" d="M69,147c0-5.5,4.5-10,10-10s10,4.5,10,10v133H69V147z"/>
			<path class="st4" d="M69,200c0-5.5,4.5-10,10-10s10,4.5,10,10v80H69V200z"/>
			<path class="st5" d="M66.3,308.1c0-0.1,0-0.1,0-0.2l1.1-0.9c0.1,0,0.1,0,0.2,0c0.1,0.1,0.2,0.2,0.4,0.3c0.2,0.1,0.4,0.1,0.6,0.1
				c0.4,0,0.7-0.1,0.9-0.4c0.2-0.2,0.3-0.6,0.3-1.1V301c0-0.1,0-0.1,0.1-0.1h1.5c0.1,0,0.1,0,0.1,0.1v5.1c0,1-0.3,1.8-0.8,2.3
				c-0.5,0.5-1.2,0.8-2.2,0.8c-0.5,0-1-0.1-1.4-0.3C66.8,308.6,66.5,308.4,66.3,308.1z M77.5,309c-0.1,0-0.1,0-0.1-0.1v-0.4h0
				c-0.2,0.2-0.4,0.3-0.6,0.5c-0.3,0.1-0.6,0.2-1,0.2c-0.3,0-0.5,0-0.7-0.1c-0.2-0.1-0.4-0.2-0.6-0.3c-0.2-0.1-0.3-0.3-0.4-0.6
				c-0.1-0.2-0.2-0.5-0.2-0.8c0-0.6,0.2-1.1,0.7-1.4c0.4-0.3,1-0.5,1.8-0.5h1c0,0,0.1,0,0.1-0.1v-0.2c0-0.3-0.1-0.5-0.3-0.6
				c-0.2-0.1-0.5-0.2-0.9-0.2c-0.3,0-0.6,0-0.8,0.1c-0.2,0.1-0.4,0.2-0.5,0.3c-0.1,0-0.1,0-0.2,0l-0.5-0.9c0-0.1,0-0.1,0-0.2
				c0.2-0.2,0.5-0.3,0.9-0.4c0.4-0.1,0.8-0.2,1.3-0.2c0.5,0,0.9,0,1.2,0.1c0.3,0.1,0.6,0.2,0.8,0.4c0.2,0.2,0.4,0.4,0.4,0.6
				c0.1,0.3,0.1,0.6,0.1,0.9v3.7c0,0.1,0,0.1-0.1,0.1H77.5z M76.2,307.9c0.7,0,1.1-0.3,1.1-0.8v-0.4c0,0,0-0.1-0.1-0.1h-0.8
				c-0.7,0-1,0.2-1,0.7C75.4,307.7,75.7,307.9,76.2,307.9z M85,309c-0.1,0-0.1,0-0.1-0.1v-3.3c0-0.3-0.1-0.6-0.2-0.8
				c-0.1-0.2-0.4-0.3-0.7-0.3c-0.3,0-0.5,0.1-0.7,0.3c-0.2,0.2-0.2,0.4-0.2,0.8v3.3c0,0.1,0,0.1-0.1,0.1h-1.4c-0.1,0-0.1,0-0.1-0.1
				v-5.6c0-0.1,0-0.1,0.1-0.1H83c0.1,0,0.1,0,0.1,0.1v0.4h0c0.1-0.2,0.3-0.3,0.6-0.5c0.2-0.1,0.6-0.2,0.9-0.2c0.3,0,0.6,0.1,0.9,0.2
				s0.5,0.3,0.6,0.4c0.2,0.2,0.3,0.4,0.4,0.7c0.1,0.3,0.1,0.6,0.1,0.9v3.7c0,0.1,0,0.1-0.1,0.1H85z"/>
		</g>
	</g>
	<g>
		<defs>
			<rect id="SVGID_00000070111759460984543510000002455946576498092437_" x="119" y="66" width="25" height="242"/>
		</defs>
		<clipPath id="SVGID_00000140737008709422963760000001977891380439916932_">
			<use xlink:href="#SVGID_00000070111759460984543510000002455946576498092437_"  style="overflow:visible;"/>
		</clipPath>
		<g style="clip-path:url(#SVGID_00000140737008709422963760000001977891380439916932_);">
			<path class="st2" d="M121,76c0-5.5,4.5-10,10-10s10,4.5,10,10v204h-20V76z"/>
			<path class="st3" d="M121,195c0-5.5,4.5-10,10-10s10,4.5,10,10v85h-20V195z"/>
			<path class="st4" d="M121,233c0-5.5,4.5-10,10-10s10,4.5,10,10v47h-20V233z"/>
			<path class="st5" d="M121.2,301c0-0.1,0-0.1,0.1-0.1h5.2c0.1,0,0.1,0,0.1,0.1v1.3c0,0.1,0,0.1-0.1,0.1h-3.5c0,0-0.1,0-0.1,0.1
				v1.7c0,0,0,0.1,0.1,0.1h2.9c0.1,0,0.1,0,0.1,0.1v1.3c0,0.1,0,0.1-0.1,0.1h-2.9c0,0-0.1,0-0.1,0.1v3.1c0,0.1,0,0.1-0.1,0.1h-1.5
				c-0.1,0-0.1,0-0.1-0.1V301z M130.9,309.1c-0.7,0-1.2-0.1-1.7-0.4c-0.4-0.3-0.7-0.7-0.9-1.2c-0.1-0.2-0.1-0.4-0.2-0.6
				c0-0.2,0-0.5,0-0.8c0-0.3,0-0.6,0-0.8c0-0.2,0.1-0.4,0.1-0.6c0.2-0.5,0.5-0.9,0.9-1.2c0.4-0.3,1-0.4,1.6-0.4
				c0.6,0,1.2,0.1,1.6,0.4c0.4,0.3,0.7,0.7,0.9,1.2c0,0.1,0.1,0.2,0.1,0.3c0,0.1,0,0.2,0.1,0.4c0,0.1,0,0.3,0,0.5c0,0.2,0,0.4,0,0.6
				c0,0.1,0,0.1-0.1,0.1h-3.5c0,0-0.1,0-0.1,0.1c0,0.1,0,0.2,0.1,0.3c0.1,0.3,0.2,0.4,0.4,0.6c0.2,0.1,0.5,0.2,0.8,0.2
				c0.3,0,0.5,0,0.8-0.1c0.2-0.1,0.4-0.2,0.6-0.4c0.1-0.1,0.1-0.1,0.2,0l0.8,0.7c0.1,0.1,0.1,0.1,0,0.2c-0.3,0.3-0.6,0.5-1,0.7
				C131.9,309,131.5,309.1,130.9,309.1z M131.8,305.5C131.9,305.5,131.9,305.5,131.8,305.5c0.1-0.2,0.1-0.2,0-0.3c0-0.1,0-0.1,0-0.2
				c-0.1-0.2-0.2-0.4-0.4-0.5c-0.2-0.1-0.4-0.2-0.6-0.2c-0.2,0-0.4,0.1-0.6,0.2c-0.2,0.1-0.3,0.3-0.3,0.5c0,0.1,0,0.1,0,0.2
				c0,0.1,0,0.1,0,0.2c0,0,0,0.1,0.1,0.1H131.8z M139,309.1c-0.4,0-0.7-0.1-0.9-0.2c-0.2-0.1-0.4-0.3-0.6-0.5h0v0.4
				c0,0.1,0,0.1-0.1,0.1h-1.4c-0.1,0-0.1,0-0.1-0.1V301c0-0.1,0-0.1,0.1-0.1h1.4c0.1,0,0.1,0,0.1,0.1v2.8h0c0.1-0.2,0.3-0.4,0.6-0.5
				c0.2-0.1,0.6-0.2,0.9-0.2c0.5,0,0.9,0.1,1.2,0.3c0.3,0.2,0.6,0.6,0.7,1c0.1,0.2,0.1,0.5,0.2,0.7s0,0.6,0,0.9c0,0.4,0,0.7,0,0.9
				c0,0.2-0.1,0.5-0.2,0.7c-0.2,0.5-0.4,0.8-0.7,1C139.9,309,139.5,309.1,139,309.1z M138.5,307.7c0.5,0,0.8-0.2,0.9-0.6
				c0-0.1,0.1-0.2,0.1-0.4c0-0.2,0-0.4,0-0.6c0-0.3,0-0.5,0-0.6c0-0.2,0-0.3-0.1-0.4c-0.1-0.4-0.4-0.6-0.9-0.6
				c-0.5,0-0.8,0.2-0.9,0.6c0,0.1-0.1,0.2-0.1,0.4c0,0.1,0,0.3,0,0.6c0,0.3,0,0.5,0,0.6c0,0.1,0,0.3,0.1,0.4
				C137.7,307.5,138,307.7,138.5,307.7z"/>
		</g>
	</g>
	<g>
		<defs>
			<rect id="SVGID_00000020357254257148445520000002734683006629766813_" x="170" y="66" width="25" height="242"/>
		</defs>
		<clipPath id="SVGID_00000031891797919996434740000016768292854938329520_">
			<use xlink:href="#SVGID_00000020357254257148445520000002734683006629766813_"  style="overflow:visible;"/>
		</clipPath>
		<g style="clip-path:url(#SVGID_00000031891797919996434740000016768292854938329520_);">
			<path class="st2" d="M173,76c0-5.5,4.5-10,10-10s10,4.5,10,10v204h-20V76z"/>
			<path class="st3" d="M173,103c0-5.5,4.5-10,10-10s10,4.5,10,10v177h-20V103z"/>
			<path class="st4" d="M173,160c0-5.5,4.5-10,10-10s10,4.5,10,10v120h-20V160z"/>
			<path class="st5" d="M174.3,301c0-0.1,0.1-0.1,0.2-0.1h1.5c0.1,0,0.1,0,0.2,0.1l2.8,7.9c0,0.1,0,0.1-0.1,0.1h-1.6
				c-0.1,0-0.1,0-0.2-0.1l-0.5-1.4h-2.9l-0.5,1.4c0,0.1-0.1,0.1-0.2,0.1h-1.6c-0.1,0-0.1,0-0.1-0.1L174.3,301z M176.1,306l-0.9-2.9
				h0l-0.9,2.9H176.1z M180.9,311.2c-0.1,0-0.1,0-0.1-0.1v-7.7c0-0.1,0-0.1,0.1-0.1h1.4c0.1,0,0.1,0,0.1,0.1v0.4h0
				c0.1-0.2,0.3-0.4,0.6-0.5c0.2-0.1,0.6-0.2,0.9-0.2c0.5,0,0.9,0.1,1.2,0.3c0.3,0.2,0.6,0.6,0.7,1c0.1,0.2,0.1,0.5,0.2,0.7
				c0,0.2,0,0.6,0,0.9c0,0.4,0,0.7,0,0.9c0,0.2-0.1,0.5-0.2,0.7c-0.2,0.5-0.4,0.8-0.7,1c-0.3,0.2-0.7,0.3-1.2,0.3
				c-0.4,0-0.7-0.1-0.9-0.2c-0.2-0.1-0.4-0.3-0.6-0.5h0v2.6c0,0.1,0,0.1-0.1,0.1H180.9z M183.5,307.7c0.5,0,0.8-0.2,0.9-0.6
				c0-0.1,0.1-0.2,0.1-0.4c0-0.2,0-0.4,0-0.6c0-0.3,0-0.5,0-0.6c0-0.2,0-0.3-0.1-0.4c-0.1-0.4-0.4-0.6-0.9-0.6
				c-0.5,0-0.8,0.2-0.9,0.6c0,0.1-0.1,0.2-0.1,0.4c0,0.1,0,0.3,0,0.6c0,0.3,0,0.5,0,0.6c0,0.1,0,0.3,0.1,0.4
				C182.7,307.5,183,307.7,183.5,307.7z M188.5,309c-0.1,0-0.1,0-0.1-0.1v-5.6c0-0.1,0-0.1,0.1-0.1h1.4c0.1,0,0.1,0,0.1,0.1v0.5h0
				c0.1-0.2,0.3-0.4,0.6-0.5c0.3-0.1,0.6-0.2,0.9-0.2c0.2,0,0.4,0,0.6,0.1c0.2,0.1,0.3,0.1,0.5,0.3c0.1,0,0.1,0.1,0,0.2l-0.7,1.2
				c0,0-0.1,0.1-0.2,0c-0.3-0.2-0.6-0.3-0.8-0.3c-0.3,0-0.5,0.1-0.7,0.3s-0.2,0.5-0.2,0.9v3.1c0,0.1,0,0.1-0.1,0.1H188.5z"/>
		</g>
	</g>
	<g>
		<defs>
			<rect id="SVGID_00000042711423892261199870000017220330630790891406_" x="223" y="66" width="28" height="242"/>
		</defs>
		<clipPath id="SVGID_00000096763270074628976020000006457975090080378018_">
			<use xlink:href="#SVGID_00000042711423892261199870000017220330630790891406_"  style="overflow:visible;"/>
		</clipPath>
		<g style="clip-path:url(#SVGID_00000096763270074628976020000006457975090080378018_);">
			<path class="st2" d="M227,76c0-5.5,4.5-10,10-10s10,4.5,10,10v204h-20V76z"/>
			<path class="st3" d="M227,128c0-5.5,4.5-10,10-10s10,4.5,10,10v152h-20V128z"/>
			<path class="st4" d="M227,168c0-5.5,4.5-10,10-10s10,4.5,10,10v112h-20V168z"/>
			<path class="st5" d="M226.6,301c0-0.1,0-0.1,0.1-0.1h1.4c0.1,0,0.2,0,0.2,0.1l2.1,4.7h0l2-4.7c0-0.1,0.1-0.1,0.2-0.1h1.4
				c0.1,0,0.1,0,0.1,0.1v7.9c0,0.1,0,0.1-0.1,0.1h-1.4c-0.1,0-0.1,0-0.1-0.1v-4.6h0l-1.5,3.4c0,0.1-0.1,0.2-0.2,0.2H230
				c-0.1,0-0.2-0.1-0.2-0.2l-1.5-3.4h0v4.6c0,0.1,0,0.1-0.1,0.1h-1.4c-0.1,0-0.1,0-0.1-0.1V301z M240.1,309c-0.1,0-0.1,0-0.1-0.1
				v-0.4h0c-0.2,0.2-0.4,0.3-0.6,0.5c-0.3,0.1-0.6,0.2-1,0.2c-0.3,0-0.5,0-0.7-0.1c-0.2-0.1-0.4-0.2-0.6-0.3
				c-0.2-0.1-0.3-0.3-0.4-0.6c-0.1-0.2-0.2-0.5-0.2-0.8c0-0.6,0.2-1.1,0.7-1.4c0.4-0.3,1-0.5,1.8-0.5h1c0,0,0.1,0,0.1-0.1v-0.2
				c0-0.3-0.1-0.5-0.3-0.6c-0.2-0.1-0.5-0.2-0.9-0.2c-0.3,0-0.6,0-0.8,0.1c-0.2,0.1-0.4,0.2-0.5,0.3c-0.1,0-0.1,0-0.2,0l-0.5-0.9
				c0-0.1,0-0.1,0-0.2c0.2-0.2,0.5-0.3,0.9-0.4c0.4-0.1,0.8-0.2,1.3-0.2c0.5,0,0.9,0,1.2,0.1c0.3,0.1,0.6,0.2,0.8,0.4
				c0.2,0.2,0.4,0.4,0.4,0.6c0.1,0.3,0.1,0.6,0.1,0.9v3.7c0,0.1,0,0.1-0.1,0.1H240.1z M238.9,307.9c0.7,0,1.1-0.3,1.1-0.8v-0.4
				c0,0,0-0.1-0.1-0.1h-0.8c-0.7,0-1,0.2-1,0.7C238,307.7,238.3,307.9,238.9,307.9z M244.3,311.2c-0.1,0-0.1,0-0.1-0.1v-1.2
				c0-0.1,0-0.1,0.1-0.1h0.3c0.2,0,0.4,0,0.5-0.1c0.1-0.1,0.2-0.2,0.3-0.5l0.2-0.4l-2.2-5.4c0-0.1,0-0.1,0.1-0.1h1.5
				c0.1,0,0.1,0,0.1,0.1l1.2,3.4h0l1.1-3.4c0-0.1,0.1-0.1,0.1-0.1h1.5c0.1,0,0.1,0,0.1,0.1l-2.4,6.2c-0.1,0.3-0.2,0.6-0.4,0.8
				c-0.1,0.2-0.3,0.4-0.4,0.5c-0.2,0.1-0.3,0.2-0.5,0.3c-0.2,0.1-0.4,0.1-0.7,0.1H244.3z"/>
		</g>
	</g>
	<g>
		<defs>
			<rect id="SVGID_00000154406913418833669320000004900579624066036141_" x="279" y="66" width="33" height="242"/>
		</defs>
		<clipPath id="SVGID_00000103963723296024940940000000358034626888089271_">
			<use xlink:href="#SVGID_00000154406913418833669320000004900579624066036141_"  style="overflow:visible;"/>
		</clipPath>
		<g style="clip-path:url(#SVGID_00000103963723296024940940000000358034626888089271_);">
			<path class="st2" d="M285,76c0-5.5,4.5-10,10-10s10,4.5,10,10v204h-20V76z"/>
			<path class="st3" d="M285,110c0-5.5,4.5-10,10-10s10,4.5,10,10v170h-20V110z"/>
			<path class="st4" d="M285,151c0-5.5,4.5-10,10-10s10,4.5,10,10v129h-20V151z"/>
			<path class="st5" d="M280.9,308.1c0-0.1,0-0.1,0-0.2l1.1-0.9c0.1,0,0.1,0,0.2,0c0.1,0.1,0.2,0.2,0.4,0.3c0.2,0.1,0.4,0.1,0.6,0.1
				c0.4,0,0.7-0.1,0.9-0.4c0.2-0.2,0.3-0.6,0.3-1.1V301c0-0.1,0-0.1,0.1-0.1h1.5c0.1,0,0.1,0,0.1,0.1v5.1c0,1-0.3,1.8-0.8,2.3
				c-0.5,0.5-1.2,0.8-2.2,0.8c-0.5,0-1-0.1-1.4-0.3C281.4,308.6,281.1,308.4,280.9,308.1z M292.2,309c-0.1,0-0.1,0-0.1-0.1v-0.4h0
				c-0.2,0.2-0.3,0.4-0.6,0.5c-0.2,0.1-0.5,0.2-0.9,0.2c-0.3,0-0.6-0.1-0.9-0.2c-0.2-0.1-0.4-0.3-0.6-0.5c-0.2-0.2-0.3-0.4-0.4-0.7
				c-0.1-0.3-0.1-0.6-0.1-0.9v-3.7c0-0.1,0-0.1,0.1-0.1h1.4c0.1,0,0.1,0,0.1,0.1v3.3c0,0.3,0.1,0.6,0.2,0.8c0.2,0.2,0.4,0.3,0.7,0.3
				c0.3,0,0.5-0.1,0.7-0.3c0.2-0.2,0.2-0.4,0.2-0.8v-3.3c0-0.1,0-0.1,0.1-0.1h1.4c0.1,0,0.1,0,0.1,0.1v5.6c0,0.1,0,0.1-0.1,0.1
				H292.2z M299.8,309c-0.1,0-0.1,0-0.1-0.1v-3.3c0-0.3-0.1-0.6-0.2-0.8c-0.1-0.2-0.4-0.3-0.7-0.3c-0.3,0-0.5,0.1-0.7,0.3
				s-0.2,0.4-0.2,0.8v3.3c0,0.1,0,0.1-0.1,0.1h-1.4c-0.1,0-0.1,0-0.1-0.1v-5.6c0-0.1,0-0.1,0.1-0.1h1.4c0.1,0,0.1,0,0.1,0.1v0.4h0
				c0.1-0.2,0.3-0.3,0.6-0.5c0.2-0.1,0.6-0.2,0.9-0.2c0.3,0,0.6,0.1,0.9,0.2c0.2,0.1,0.5,0.3,0.6,0.4c0.2,0.2,0.3,0.4,0.4,0.7
				c0.1,0.3,0.1,0.6,0.1,0.9v3.7c0,0.1,0,0.1-0.1,0.1H299.8z M306.4,309.1c-0.7,0-1.2-0.1-1.7-0.4c-0.4-0.3-0.7-0.7-0.9-1.2
				c-0.1-0.2-0.1-0.4-0.2-0.6c0-0.2,0-0.5,0-0.8c0-0.3,0-0.6,0-0.8c0-0.2,0.1-0.4,0.1-0.6c0.2-0.5,0.5-0.9,0.9-1.2
				c0.4-0.3,1-0.4,1.6-0.4c0.6,0,1.2,0.1,1.6,0.4c0.4,0.3,0.7,0.7,0.9,1.2c0,0.1,0.1,0.2,0.1,0.3c0,0.1,0,0.2,0.1,0.4
				c0,0.1,0,0.3,0,0.5c0,0.2,0,0.4,0,0.6c0,0.1,0,0.1-0.1,0.1h-3.5c0,0-0.1,0-0.1,0.1c0,0.1,0,0.2,0.1,0.3c0.1,0.3,0.2,0.4,0.4,0.6
				c0.2,0.1,0.5,0.2,0.8,0.2c0.3,0,0.5,0,0.8-0.1c0.2-0.1,0.4-0.2,0.6-0.4c0.1-0.1,0.1-0.1,0.2,0l0.8,0.7c0.1,0.1,0.1,0.1,0,0.2
				c-0.3,0.3-0.6,0.5-1,0.7C307.4,309,306.9,309.1,306.4,309.1z M307.2,305.5C307.3,305.5,307.3,305.5,307.2,305.5
				c0.1-0.2,0.1-0.2,0-0.3c0-0.1,0-0.1,0-0.2c-0.1-0.2-0.2-0.4-0.4-0.5c-0.2-0.1-0.4-0.2-0.6-0.2s-0.4,0.1-0.6,0.2
				c-0.2,0.1-0.3,0.3-0.3,0.5c0,0.1,0,0.1,0,0.2c0,0.1,0,0.1,0,0.2c0,0,0,0.1,0.1,0.1H307.2z"/>
		</g>
	</g>
	<g>
		<defs>
			<rect id="SVGID_00000034085254970948125660000006152991888581553333_" x="340" y="66" width="30" height="242"/>
		</defs>
		<clipPath id="SVGID_00000127016103701122459180000011183532987926378883_">
			<use xlink:href="#SVGID_00000034085254970948125660000006152991888581553333_"  style="overflow:visible;"/>
		</clipPath>
		<g style="clip-path:url(#SVGID_00000127016103701122459180000011183532987926378883_);">
			<path class="st2" d="M345,76c0-5.5,4.5-10,10-10s10,4.5,10,10v204h-20V76z"/>
			<path class="st11" d="M345,95c0-5.5,4.5-10,10-10s10,4.5,10,10v185h-20v-91.8V95z"/>
			<path class="st4" d="M345,135c0-5.5,4.5-10,10-10s10,4.5,10,10v145h-20V135z"/>
			<path class="st5" d="M342.1,308.1c0-0.1,0-0.1,0-0.2l1.1-0.9c0.1,0,0.1,0,0.2,0c0.1,0.1,0.2,0.2,0.4,0.3c0.2,0.1,0.4,0.1,0.6,0.1
				c0.4,0,0.7-0.1,0.9-0.4c0.2-0.2,0.3-0.6,0.3-1.1V301c0-0.1,0-0.1,0.1-0.1h1.5c0.1,0,0.1,0,0.1,0.1v5.1c0,1-0.3,1.8-0.8,2.3
				c-0.5,0.5-1.2,0.8-2.2,0.8c-0.5,0-1-0.1-1.4-0.3C342.5,308.6,342.2,308.4,342.1,308.1z M353.3,309c-0.1,0-0.1,0-0.1-0.1v-0.4h0
				c-0.2,0.2-0.3,0.4-0.6,0.5c-0.2,0.1-0.5,0.2-0.9,0.2c-0.3,0-0.6-0.1-0.9-0.2c-0.2-0.1-0.4-0.3-0.6-0.5c-0.2-0.2-0.3-0.4-0.4-0.7
				c-0.1-0.3-0.1-0.6-0.1-0.9v-3.7c0-0.1,0-0.1,0.1-0.1h1.4c0.1,0,0.1,0,0.1,0.1v3.3c0,0.3,0.1,0.6,0.2,0.8c0.2,0.2,0.4,0.3,0.7,0.3
				c0.3,0,0.5-0.1,0.7-0.3c0.2-0.2,0.2-0.4,0.2-0.8v-3.3c0-0.1,0-0.1,0.1-0.1h1.4c0.1,0,0.1,0,0.1,0.1v5.6c0,0.1,0,0.1-0.1,0.1
				H353.3z M359.2,309.1c-0.6,0-1.1-0.1-1.4-0.4c-0.3-0.3-0.4-0.8-0.4-1.4V301c0-0.1,0-0.1,0.1-0.1h1.4c0.1,0,0.1,0,0.1,0.1v6.1
				c0,0.2,0,0.3,0.1,0.4c0.1,0.1,0.2,0.1,0.4,0.1h0.3c0.1,0,0.1,0,0.1,0.1v1.2c0,0.1,0,0.1-0.1,0.1H359.2z M362.3,311.2
				c-0.1,0-0.1,0-0.1-0.1v-1.2c0-0.1,0-0.1,0.1-0.1h0.3c0.2,0,0.4,0,0.5-0.1c0.1-0.1,0.2-0.2,0.3-0.5l0.2-0.4l-2.2-5.4
				c0-0.1,0-0.1,0.1-0.1h1.5c0.1,0,0.1,0,0.1,0.1l1.2,3.4h0l1.1-3.4c0-0.1,0.1-0.1,0.1-0.1h1.5c0.1,0,0.1,0,0.1,0.1l-2.4,6.2
				c-0.1,0.3-0.2,0.6-0.4,0.8c-0.1,0.2-0.3,0.4-0.4,0.5c-0.2,0.1-0.3,0.2-0.5,0.3c-0.2,0.1-0.4,0.1-0.7,0.1H362.3z"/>
		</g>
	</g>
	<g>
		<defs>
			<rect id="SVGID_00000173133825810272409260000008041936673878967951_" x="397" y="66" width="27" height="242"/>
		</defs>
		<clipPath id="SVGID_00000034786994157061772430000008168892110195257752_">
			<use xlink:href="#SVGID_00000173133825810272409260000008041936673878967951_"  style="overflow:visible;"/>
		</clipPath>
		<g style="clip-path:url(#SVGID_00000034786994157061772430000008168892110195257752_);">
			<path class="st2" d="M400,76c0-5.5,4.5-10,10-10s10,4.5,10,10v204h-20V76z"/>
			<path class="st11" d="M400,110c0-5.5,4.5-10,10-10s10,4.5,10,10v170h-20v-84.7V110z"/>
			<path class="st4" d="M400,157c0-5.5,4.5-10,10-10s10,4.5,10,10v123h-20V157z"/>
			<path class="st5" d="M404.3,301c0-0.1,0.1-0.1,0.2-0.1h1.5c0.1,0,0.1,0,0.2,0.1l2.8,7.9c0,0.1,0,0.1-0.1,0.1h-1.6
				c-0.1,0-0.1,0-0.2-0.1l-0.5-1.4h-2.9l-0.5,1.4c0,0.1-0.1,0.1-0.2,0.1h-1.6c-0.1,0-0.1,0-0.1-0.1L404.3,301z M406.1,306l-0.9-2.9
				h0l-0.9,2.9H406.1z M414.2,309c-0.1,0-0.1,0-0.1-0.1v-0.4h0c-0.2,0.2-0.3,0.4-0.6,0.5c-0.2,0.1-0.5,0.2-0.9,0.2
				c-0.3,0-0.6-0.1-0.9-0.2c-0.2-0.1-0.4-0.3-0.6-0.5c-0.2-0.2-0.3-0.4-0.4-0.7c-0.1-0.3-0.1-0.6-0.1-0.9v-3.7c0-0.1,0-0.1,0.1-0.1
				h1.4c0.1,0,0.1,0,0.1,0.1v3.3c0,0.3,0.1,0.6,0.2,0.8c0.2,0.2,0.4,0.3,0.7,0.3c0.3,0,0.5-0.1,0.7-0.3c0.2-0.2,0.2-0.4,0.2-0.8
				v-3.3c0-0.1,0-0.1,0.1-0.1h1.4c0.1,0,0.1,0,0.1,0.1v5.6c0,0.1,0,0.1-0.1,0.1H414.2z M420.4,311.3c-0.2,0-0.4,0-0.6-0.1
				c-0.2,0-0.4-0.1-0.6-0.2c-0.2-0.1-0.4-0.2-0.5-0.3c-0.2-0.1-0.3-0.2-0.4-0.3c0-0.1,0-0.1,0-0.2l0.9-0.9c0.1-0.1,0.1-0.1,0.2,0
				c0.2,0.2,0.4,0.3,0.6,0.4c0.2,0.1,0.4,0.1,0.6,0.1c0.4,0,0.7-0.1,0.9-0.3c0.2-0.2,0.3-0.5,0.3-1v-0.5h0c-0.1,0.2-0.3,0.4-0.6,0.5
				c-0.2,0.1-0.6,0.2-0.9,0.2c-0.5,0-0.9-0.1-1.2-0.3c-0.3-0.2-0.6-0.6-0.7-1.1c-0.1-0.2-0.1-0.4-0.1-0.6c0-0.2,0-0.5,0-0.8
				c0-0.3,0-0.6,0-0.8c0-0.2,0.1-0.4,0.1-0.6c0.2-0.5,0.4-0.8,0.7-1c0.3-0.2,0.7-0.4,1.2-0.4c0.4,0,0.7,0.1,0.9,0.2
				c0.2,0.1,0.4,0.3,0.6,0.5h0v-0.4c0-0.1,0-0.1,0.1-0.1h1.4c0.1,0,0.1,0,0.1,0.1v5.1C423.3,310.3,422.3,311.3,420.4,311.3z
				 M420.6,307.4c0.2,0,0.4-0.1,0.6-0.2c0.1-0.1,0.2-0.3,0.3-0.5c0-0.1,0.1-0.2,0.1-0.3c0-0.1,0-0.3,0-0.5c0-0.2,0-0.3,0-0.5
				c0-0.1,0-0.2-0.1-0.4c-0.1-0.2-0.2-0.4-0.3-0.5c-0.1-0.1-0.3-0.2-0.6-0.2c-0.2,0-0.4,0.1-0.6,0.2c-0.1,0.1-0.2,0.3-0.3,0.5
				c0,0.1-0.1,0.2-0.1,0.4c0,0.1,0,0.3,0,0.5c0,0.2,0,0.3,0,0.5c0,0.1,0,0.2,0.1,0.3c0.1,0.2,0.2,0.4,0.3,0.5
				C420.2,307.3,420.4,307.4,420.6,307.4z"/>
		</g>
	</g>
	<g>
		<defs>
			<rect id="SVGID_00000143591139944592907960000004574814103286261402_" x="66" y="327" width="80" height="16"/>
		</defs>
		<clipPath id="SVGID_00000019639002996271523600000002328640010378728115_">
			<use xlink:href="#SVGID_00000143591139944592907960000004574814103286261402_"  style="overflow:visible;"/>
		</clipPath>
		<g style="clip-path:url(#SVGID_00000019639002996271523600000002328640010378728115_);">
			<path class="st14" d="M95.2,332.4c0,1-0.5,2-1.6,2.5c1.6,0.4,2.2,1.7,2.2,2.9c0,2.3-1.9,3.2-4,3.2h-4.1v-11.4h3.5
				C94,329.6,95.2,330.9,95.2,332.4z M93.9,332.6c0-1-0.8-1.8-2.7-1.8h-2.4v3.8h2.4C93,334.6,93.9,333.9,93.9,332.6z M94.6,337.8
				c0-1.7-1.3-2.2-3-2.2h-2.7v4.2h2.8C93.7,339.9,94.6,339.1,94.6,337.8z M102,341.2c-1.8,0-3.5-0.6-3.5-2.4c0-1.8,1.5-2.5,3.8-2.5
				c0.4,0,1,0.1,1.7,0.1v-0.2c0-1.3-0.8-1.8-2.1-1.8c-0.8,0-1.9,0.3-2.6,0.7l0.2-1.3c0.7-0.3,1.5-0.5,2.5-0.5c2,0,3.1,0.8,3.1,2.9
				v4.5C104.2,340.9,103.1,341.2,102,341.2z M103.9,337.4c-0.4-0.1-1.1-0.2-1.7-0.2c-1.2,0-2.5,0.2-2.5,1.4c0,1.1,1.1,1.4,2.3,1.4
				c0.7,0,1.4-0.1,1.9-0.3V337.4z M108.7,341v-11.4h1.1V341H108.7z M116.6,341.2c-1.8,0-3.5-0.6-3.5-2.4c0-1.8,1.5-2.5,3.8-2.5
				c0.4,0,1,0.1,1.7,0.1v-0.2c0-1.3-0.8-1.8-2.1-1.8c-0.8,0-1.9,0.3-2.6,0.7l0.2-1.3c0.7-0.3,1.5-0.5,2.5-0.5c2,0,3.1,0.8,3.1,2.9
				v4.5C118.7,340.9,117.6,341.2,116.6,341.2z M118.5,337.4c-0.4-0.1-1.1-0.2-1.7-0.2c-1.2,0-2.5,0.2-2.5,1.4c0,1.1,1.1,1.4,2.3,1.4
				c0.7,0,1.4-0.1,1.9-0.3V337.4z M87.4,350.6c1.1-0.2,2.3-0.4,3.2-0.4c1.9,0,3.3,0.6,3.3,3.1v4.6h-1.1v-4.2c0-2-0.8-2.5-2.2-2.5
				c-0.6,0-1.3,0.1-2,0.2v6.5h-1.1V350.6z M96.8,354.2c0-2.3,1.7-4,3.9-4c1.1,0,1.9,0.2,2.6,0.6l-0.5,1c-0.6-0.4-1.2-0.6-2.1-0.6
				c-1.6,0-2.7,1.2-2.7,2.9c0,1.6,1.1,2.9,2.7,2.9c0.9,0,1.6-0.2,2.1-0.6l0.5,1c-0.7,0.4-1.6,0.6-2.6,0.6
				C98.5,358.2,96.8,356.5,96.8,354.2z M109.4,357c1.1,0,2-0.3,2.6-0.7l0.5,1c-0.8,0.4-1.7,0.8-3.2,0.8c-2.3,0-4-1.7-4-4
				c0-2.3,1.7-4,3.9-4c2.2,0,3.8,1.6,3.8,4.3h-6.5C106.7,356,107.8,357,109.4,357z M109.3,351.3c-1.5,0-2.4,0.9-2.7,2.2h5.2
				C111.7,352.1,110.7,351.3,109.3,351.3z"/>
			<circle class="st2" cx="72" cy="337" r="6"/>
		</g>
	</g>
	<g>
		<defs>
			<rect id="SVGID_00000065065380106904293860000012043673485060123052_" x="206" y="327" width="75" height="16"/>
		</defs>
		<clipPath id="SVGID_00000147928038158202798780000003822992670963947401_">
			<use xlink:href="#SVGID_00000065065380106904293860000012043673485060123052_"  style="overflow:visible;"/>
		</clipPath>
		<g style="clip-path:url(#SVGID_00000147928038158202798780000003822992670963947401_);">
			<path class="st14" d="M227.7,341v-11.4h1.2V341H227.7z M232.9,333.6c1.1-0.2,2.3-0.4,3.2-0.4c1.9,0,3.3,0.6,3.3,3.1v4.6h-1.1
				v-4.2c0-2-0.8-2.5-2.2-2.5c-0.6,0-1.3,0.1-2,0.2v6.5h-1.1V333.6z M242.3,337.2c0-2.3,1.7-4,3.9-4c1.1,0,1.9,0.2,2.6,0.6l-0.5,1
				c-0.6-0.4-1.2-0.6-2.1-0.6c-1.6,0-2.7,1.2-2.7,2.9c0,1.6,1.1,2.9,2.7,2.9c0.9,0,1.6-0.2,2.1-0.6l0.5,1c-0.7,0.4-1.6,0.6-2.6,0.6
				C244,341.2,242.3,339.5,242.3,337.2z M230.5,358.2c-2.2,0-3.9-1.8-3.9-4c0-2.2,1.7-4,3.9-4c2.2,0,4,1.8,4,4
				C234.5,356.4,232.8,358.2,230.5,358.2z M230.5,357c1.7,0,2.7-1.3,2.7-2.9c0-1.6-1.1-2.9-2.7-2.9c-1.7,0-2.7,1.3-2.7,2.9
				C227.8,355.7,228.9,357,230.5,357z M247.2,353.8c0-2-0.7-2.5-2.1-2.5c-0.5,0-1.3,0.2-2,0.5c0.2,0.4,0.3,1.1,0.3,1.7v4.5h-1.1
				v-4.2c0-2-0.7-2.5-2.1-2.5c-0.6,0-1,0.1-1.7,0.2v6.5h-1.1v-7.4c1.1-0.2,2.1-0.4,2.9-0.4c0.9,0,1.7,0.2,2.2,0.6
				c0.8-0.4,1.9-0.6,2.7-0.6c1.9,0,3.1,0.6,3.1,3.1v4.6h-1.1V353.8z M255.2,357c1.1,0,2-0.3,2.6-0.7l0.5,1c-0.8,0.4-1.7,0.8-3.2,0.8
				c-2.3,0-4-1.7-4-4c0-2.3,1.7-4,3.9-4c2.2,0,3.8,1.6,3.8,4.3h-6.5C252.5,356,253.6,357,255.2,357z M255.1,351.3
				c-1.5,0-2.4,0.9-2.7,2.2h5.2C257.5,352.1,256.5,351.3,255.1,351.3z"/>
			<circle class="st4" cx="212" cy="337" r="6"/>
		</g>
	</g>
	<g>
		<defs>
			<rect id="SVGID_00000103229594686868940350000009574958708265233084_" x="329" y="327" width="91" height="16"/>
		</defs>
		<clipPath id="SVGID_00000056393045483858625490000011404660883596464823_">
			<use xlink:href="#SVGID_00000103229594686868940350000009574958708265233084_"  style="overflow:visible;"/>
		</clipPath>
		<g style="clip-path:url(#SVGID_00000056393045483858625490000011404660883596464823_);">
			<path class="st14" d="M350.5,339.1c0.8,0.5,2.1,0.9,3.3,0.9c1.7,0,2.9-0.7,2.9-2.1c0-1.3-1-1.8-2.6-2.3l-0.9-0.2
				c-2-0.6-3-1.7-3-3.2c0-1.8,1.7-2.8,3.7-2.8c1.4,0,2.8,0.4,3.8,1l-0.5,1c-0.9-0.6-2.1-0.9-3.3-0.9c-1.3,0-2.4,0.5-2.4,1.7
				c0,1.1,0.7,1.7,2.2,2.1l0.9,0.3c1.7,0.5,3.3,1.4,3.3,3.3c0,2.1-1.6,3.2-4.1,3.2c-1.4,0-2.9-0.4-3.9-1L350.5,339.1z M362.7,344.1
				h-1.1v-10.5c0.8-0.2,1.8-0.4,2.7-0.4c2.9,0,4.4,1.7,4.4,3.9s-1.5,4-4.4,4c-0.4,0-1-0.1-1.6-0.2V344.1z M362.7,339.8
				c0.7,0.2,1.2,0.2,1.6,0.2c2.1,0,3.2-1.1,3.2-2.9s-1.1-2.8-3.2-2.8c-0.5,0-1,0.1-1.6,0.2V339.8z M375.2,340c1.1,0,2-0.3,2.6-0.7
				l0.5,1c-0.8,0.4-1.7,0.8-3.2,0.8c-2.3,0-4-1.7-4-4c0-2.3,1.7-4,3.9-4c2.2,0,3.8,1.6,3.8,4.3h-6.5C372.5,339,373.6,340,375.2,340z
				 M375.1,334.3c-1.5,0-2.4,0.9-2.7,2.2h5.2C377.5,335.1,376.5,334.3,375.1,334.3z M381.8,333.6c1.1-0.2,2.3-0.4,3.2-0.4
				c1.9,0,3.3,0.6,3.3,3.1v4.6h-1.1v-4.2c0-2-0.8-2.5-2.2-2.5c-0.6,0-1.3,0.1-2,0.2v6.5h-1.1V333.6z M397.1,329.6h1.1v11.1
				c-0.8,0.2-1.8,0.4-2.7,0.4c-2.9,0-4.4-1.7-4.4-3.9s1.5-4,4.4-4c0.4,0,0.9,0.1,1.6,0.2V329.6z M392.3,337.2c0,1.8,1.1,2.8,3.2,2.8
				c0.5,0,1-0.1,1.6-0.2v-5.3c-0.7-0.2-1.1-0.2-1.6-0.2C393.4,334.3,392.3,335.4,392.3,337.2z M351,347.1c0.4,0,0.8,0.3,0.8,0.8
				c0,0.4-0.4,0.8-0.8,0.8c-0.4,0-0.8-0.3-0.8-0.8C350.2,347.5,350.5,347.1,351,347.1z M350.4,350.4h1.1v7.6h-1.1V350.4z
				 M355.3,350.6c1.1-0.2,2.3-0.4,3.2-0.4c1.9,0,3.3,0.6,3.3,3.1v4.6h-1.1v-4.2c0-2-0.8-2.5-2.2-2.5c-0.6,0-1.3,0.1-2,0.2v6.5h-1.1
				V350.6z M364.6,354.1c0-2.2,1.5-3.9,4.4-3.9c0.9,0,1.8,0.1,2.7,0.4v7.4c0,2.3-1.1,3.1-3.5,3.1c-0.7,0-1.8-0.2-2.6-0.5l-0.1-1.3
				c0.7,0.4,1.9,0.7,2.7,0.7c1.4,0,2.4-0.6,2.4-1.9v-0.3c-0.6,0.1-1.2,0.2-1.6,0.2C366.1,358.1,364.6,356.3,364.6,354.1z
				 M370.6,351.5c-0.6-0.1-1.1-0.2-1.6-0.2c-2.1,0-3.2,1-3.2,2.8c0,1.8,1.1,2.9,3.2,2.9c0.4,0,0.9,0,1.6-0.2V351.5z"/>
			<circle class="st3" cx="335" cy="337" r="6"/>
		</g>
	</g>
</g>
</svg>
